<svg width="12" height="12" viewBox="0 0 12 12" fill="none" xmlns="http://www.w3.org/2000/svg">
<rect width="12" height="12" fill="white" fill-opacity="0.01"/>
<path d="M0.998962 7C0.998962 4.74207 2.80383 2.5 5.48853 2.5C8.61224 2.5 9.97815 5.17307 9.97815 7H11.975V6H10.8745C10.8412 5.83365 10.7998 5.66486 10.75 5.49515L12 5.01041L11.6398 4.07779L10.3911 4.56207C9.61469 2.95081 8.0387 1.5 5.48853 1.5C2.18579 1.5 -0.0010376 4.25793 -0.0010376 7H0.998962Z" fill="#6879BB"/>
<path fill-rule="evenodd" clip-rule="evenodd" d="M6.87457 4.42136C6.46436 4.14664 5.98199 4 5.48853 4C4.8269 4 4.19232 4.26337 3.72449 4.73221C3.25659 5.20105 2.99377 5.83694 2.99377 6.49997C2.99377 6.99445 3.14014 7.47781 3.41425 7.88892C3.68835 8.30005 4.07806 8.62051 4.53394 8.80975C4.98981 8.99896 5.49127 9.0484 5.97522 8.95193C6.45917 8.8555 6.90375 8.61737 7.25262 8.26776C7.60156 7.91812 7.83917 7.4726 7.93542 6.98764C8.03168 6.50269 7.9823 6.00018 7.79352 5.54337C7.60468 5.08655 7.28485 4.69604 6.87457 4.42136ZM6.66302 7.67694C6.35144 7.9892 5.92926 8.16531 5.48853 8.16663C5.04742 8.16663 4.62433 7.99112 4.31244 7.67856C4.00049 7.366 3.82538 6.94202 3.82538 6.49997C3.82538 6.05795 4.00049 5.63397 4.31244 5.32141C4.62433 5.00885 5.04742 4.83331 5.48853 4.83331C5.55811 4.83475 5.62756 4.84033 5.69647 4.85001C5.47015 4.8869 5.2583 4.9856 5.08435 5.13525C4.91034 5.28488 4.78088 5.47961 4.71014 5.69818C4.63947 5.91675 4.63025 6.15076 4.68353 6.37424C4.73682 6.59772 4.85059 6.80212 5.01227 6.96506C5.17389 7.12802 5.37708 7.24323 5.59979 7.29791C5.82251 7.3526 6.05615 7.34473 6.27466 7.27512C6.49316 7.20554 6.68829 7.0769 6.83868 6.90341C6.98901 6.72995 7.08862 6.51822 7.12677 6.29166C7.13965 6.36047 7.14801 6.43005 7.15173 6.49997C7.15039 6.94159 6.97467 7.36465 6.66302 7.67694Z" fill="#6879BB"/>
</svg>
