<svg width="67" height="17" viewBox="0 0 67 17" fill="none" xmlns="http://www.w3.org/2000/svg">
<path d="M4.4274 2.60938C6.99665 2.60938 8.40614 4.24516 8.40614 7.70001C8.40614 11.1549 6.96702 12.8136 4.4274 12.8136C4.00486 12.839 3.58197 12.7708 3.1846 12.6133C2.78723 12.4557 2.42373 12.212 2.11635 11.8971V15.6544C2.11635 15.9582 2.00486 16.2496 1.80642 16.4644C1.60797 16.6792 1.33882 16.7999 1.05817 16.7999C0.777529 16.7999 0.508378 16.6792 0.309932 16.4644C0.111485 16.2496 3.87515e-07 15.9582 3.87515e-07 15.6544V3.88318C3.87515e-07 3.57937 0.111485 3.28801 0.309932 3.07318C0.508378 2.85836 0.777529 2.73767 1.05817 2.73767C1.33882 2.73767 1.60797 2.85836 1.80642 3.07318C2.00486 3.28801 2.11635 3.57937 2.11635 3.88318C2.38379 3.49123 2.73185 3.17207 3.13298 2.95097C3.53411 2.72988 3.97728 2.61293 4.4274 2.60938ZM4.15227 4.56132C2.78088 4.56132 2.03593 5.62435 2.03593 7.72292C2.03593 9.82149 2.75972 10.8616 4.15227 10.8616C5.54483 10.8616 6.26862 9.79858 6.26862 7.72292C6.26862 5.64726 5.5279 4.56132 4.15651 4.56132H4.15227Z" fill="white"/>
<path d="M12.0971 3.98887C12.3053 3.57693 12.6111 3.23246 12.983 2.99087C13.355 2.74928 13.7797 2.61929 14.2134 2.61426C14.3446 2.61426 14.4745 2.64223 14.5957 2.69657C14.7169 2.75091 14.827 2.83057 14.9198 2.93098C15.0125 3.03139 15.0861 3.1506 15.1363 3.2818C15.1865 3.41299 15.2123 3.55361 15.2123 3.69562C15.2123 3.83762 15.1865 3.97824 15.1363 4.10943C15.0861 4.24063 15.0125 4.35984 14.9198 4.46025C14.827 4.56067 14.7169 4.64032 14.5957 4.69466C14.4745 4.74901 14.3446 4.77698 14.2134 4.77698C12.8589 4.77698 12.0971 5.69338 12.0971 7.13214V11.563C12.0971 11.8668 11.9856 12.1581 11.7871 12.373C11.5887 12.5878 11.3195 12.7085 11.0389 12.7085C10.7582 12.7085 10.4891 12.5878 10.2906 12.373C10.0922 12.1581 9.98071 11.8668 9.98071 11.563V3.88348C9.98071 3.57967 10.0922 3.28831 10.2906 3.07348C10.4891 2.85866 10.7582 2.73797 11.0389 2.73797C11.3195 2.73797 11.5887 2.85866 11.7871 3.07348C11.9856 3.28831 12.0971 3.57967 12.0971 3.88348V3.98887Z" fill="white"/>
<path d="M20.1137 12.8136C17.4683 12.8136 15.8218 11.1778 15.8218 7.72292C15.8218 4.26807 17.4683 2.60938 20.1137 2.60938C22.7592 2.60938 24.4057 4.23141 24.4057 7.72292C24.4057 11.2144 22.7592 12.8136 20.1137 12.8136ZM20.1137 4.5659C18.7042 4.5659 17.9593 5.62893 17.9593 7.7275C17.9593 9.82607 18.7042 10.8662 20.1137 10.8662C21.5232 10.8662 22.2682 9.80316 22.2682 7.7275C22.2682 5.65184 21.5232 4.56132 20.1137 4.56132V4.5659Z" fill="white"/>
<path d="M29.7983 2.60949C30.3981 2.58164 30.9961 2.69879 31.5489 2.95241C32.1017 3.20603 32.5953 3.58977 32.994 4.07574C33.1073 4.22539 33.1792 4.40667 33.2015 4.59867C33.2237 4.79067 33.1954 4.98558 33.1197 5.16089C33.0441 5.33621 32.9242 5.4848 32.7738 5.58952C32.6235 5.69424 32.4489 5.75083 32.2702 5.75276C32.1324 5.75324 31.9963 5.72109 31.8712 5.65856C31.7462 5.59603 31.6353 5.50463 31.5464 5.39078C31.3301 5.12201 31.0616 4.90829 30.7602 4.76492C30.4587 4.62155 30.1317 4.55206 29.8025 4.56143C28.4311 4.56143 27.6862 5.70694 27.6862 7.70012C27.6862 9.6933 28.4311 10.8617 29.8025 10.8617C30.5196 10.8293 31.2044 10.5299 31.7411 10.014C31.9087 9.87213 32.1167 9.79763 32.3294 9.80327C32.5236 9.80246 32.7132 9.86645 32.8725 9.98653C33.0318 10.1066 33.153 10.2769 33.2196 10.4743C33.2863 10.6717 33.2951 10.8865 33.2448 11.0895C33.1946 11.2924 33.0878 11.4737 32.9389 11.6086C32.0647 12.4124 30.9493 12.8426 29.8025 12.8182C27.1359 12.8182 25.5698 11.1641 25.5698 7.7047C25.5698 4.24527 27.1317 2.60949 29.7983 2.60949Z" fill="white"/>
<path d="M38.6403 2.60938C41.9545 2.60938 42.5598 5.35859 42.5598 6.83401C42.5598 7.61753 42.5598 8.53394 41.362 8.53394H36.5198C36.5198 10.0598 37.5187 10.7608 38.8139 10.7608C39.5076 10.7633 40.1849 10.5328 40.7525 10.101C40.9326 9.95222 41.1523 9.87028 41.3789 9.86731C41.5002 9.8667 41.6205 9.89213 41.7327 9.94211C41.8449 9.99209 41.9468 10.0656 42.0326 10.1585C42.1184 10.2514 42.1863 10.3618 42.2325 10.4832C42.2787 10.6047 42.3022 10.7348 42.3016 10.8662C42.2999 11.0149 42.2692 11.1615 42.2115 11.2965C42.1539 11.4315 42.0707 11.5519 41.9672 11.6497C41.0862 12.452 39.96 12.8688 38.8096 12.8181C36.0838 12.8181 34.3992 11.2282 34.3992 7.68168C34.4034 4.43302 35.9737 2.60938 38.6403 2.60938ZM36.5959 6.61865H40.4773C40.4773 5.57853 39.9271 4.56132 38.653 4.56132C38.391 4.53992 38.1277 4.57718 37.8796 4.67077C37.6315 4.76436 37.4038 4.91227 37.2108 5.10529C37.0178 5.29831 36.8636 5.5323 36.7578 5.79267C36.6521 6.05304 36.5969 6.33421 36.5959 6.61865Z" fill="white"/>
<path d="M46.0262 5.40899C46.0262 6.98063 50.8473 6.25667 50.8473 9.75734C50.8473 11.7505 49.2769 12.7723 47.2622 12.7723C45.5691 12.7723 44.2993 11.943 43.7914 11.2877C43.6399 11.107 43.5555 10.872 43.5543 10.6279C43.5576 10.3593 43.6577 10.1026 43.8332 9.91259C44.0087 9.72259 44.2458 9.61427 44.494 9.61072C44.7194 9.6124 44.9363 9.70372 45.1035 9.86731C45.6984 10.4342 46.4654 10.7441 47.2579 10.7379C48.1383 10.7379 48.7097 10.4813 48.7097 9.89022C48.7097 8.17196 43.9056 9.06087 43.9056 5.45482C43.9056 3.54411 45.3744 2.60938 47.1775 2.60938C48.5701 2.60938 49.806 3.18213 50.352 3.92442C50.489 4.10245 50.5585 4.33001 50.5467 4.56132C50.5435 4.82999 50.4434 5.08666 50.2679 5.27666C50.0924 5.46666 49.8553 5.57497 49.6071 5.57853C49.3604 5.56553 49.1255 5.46027 48.9425 5.2807C48.4421 4.84479 47.8198 4.6057 47.1775 4.60256C46.458 4.60256 46.0262 4.87748 46.0262 5.40899Z" fill="white"/>
<path d="M56.3965 2.60938C59.7107 2.60938 60.316 5.35859 60.316 6.83401C60.316 7.61753 60.316 8.53394 59.1181 8.53394H54.2801C54.2801 10.0598 55.279 10.7608 56.5742 10.7608C57.2679 10.7633 57.9453 10.5328 58.5128 10.101C58.693 9.95222 58.9127 9.87027 59.1393 9.86731C59.2606 9.8667 59.3808 9.89213 59.493 9.94211C59.6052 9.99209 59.7072 10.0656 59.793 10.1585C59.8788 10.2514 59.9467 10.3618 59.9929 10.4832C60.0391 10.6047 60.0626 10.7348 60.062 10.8662C60.06 11.0148 60.0292 11.1614 59.9716 11.2963C59.914 11.4313 59.8309 11.5517 59.7276 11.6497C58.8464 12.4516 57.7203 12.8683 56.57 12.8181C53.8442 12.8181 52.1595 11.2282 52.1595 7.68168C52.1638 4.43302 53.7299 2.60938 56.3965 2.60938ZM54.3394 6.61865H58.2208C58.2208 5.57853 57.6705 4.56132 56.3965 4.56132C56.1345 4.53992 55.8712 4.57718 55.6231 4.67077C55.3749 4.76436 55.1473 4.91227 54.9543 5.10529C54.7613 5.29831 54.6071 5.5323 54.5013 5.79267C54.3955 6.05304 54.3404 6.33421 54.3394 6.61865Z" fill="white"/>
<path d="M62.4749 1.12489C62.4749 0.826549 62.5843 0.540429 62.7792 0.329472C62.9741 0.118515 63.2384 1.57312e-07 63.514 1.57312e-07C63.7896 1.57312e-07 64.0539 0.118515 64.2488 0.329472C64.4436 0.540429 64.5531 0.826549 64.5531 1.12489V2.9073H65.4335C65.6676 2.9073 65.8921 3.00795 66.0576 3.18711C66.2231 3.36628 66.316 3.60928 66.316 3.86265C66.316 4.11603 66.2231 4.35902 66.0576 4.53819C65.8921 4.71735 65.6676 4.818 65.4335 4.818H64.532V9.94988C64.5341 10.0532 64.5552 10.155 64.5939 10.2494C64.6326 10.3439 64.6881 10.4291 64.7574 10.5003C64.8266 10.5714 64.9081 10.627 64.9973 10.6638C65.0865 10.7007 65.1815 10.7181 65.2769 10.7151C65.5103 10.7322 65.7289 10.8447 65.8886 11.0297C66.0483 11.2147 66.1372 11.4585 66.1372 11.7117C66.1372 11.9649 66.0483 12.2086 65.8886 12.3937C65.7289 12.5787 65.5103 12.6911 65.2769 12.7083C63.533 12.7083 62.4537 11.4986 62.4537 9.82158V4.81342H62.0008C61.7667 4.81342 61.5423 4.71277 61.3768 4.53361C61.2113 4.35444 61.1183 4.11144 61.1183 3.85807C61.1183 3.60469 61.2113 3.3617 61.3768 3.18253C61.5423 3.00337 61.7667 2.90272 62.0008 2.90272H62.4537L62.4749 1.12489Z" fill="white"/>
</svg>
